<svg width="37" height="34" viewBox="0 0 37 34" fill="none" xmlns="http://www.w3.org/2000/svg">
<path d="M0.413082 25.7268C0.524166 25.5492 0.697165 25.5365 0.939364 25.6905C6.46624 28.8803 12.4812 30.4843 18.9786 30.4843C23.3146 30.4843 27.5922 29.6741 31.8188 28.0702L32.296 27.8581C32.5054 27.7657 32.6511 27.7059 32.7403 27.6606C33.0845 27.5265 33.334 27.5935 33.5379 27.8581C33.7237 28.1173 33.6763 28.3638 33.3558 28.5831C32.9679 28.8694 32.4453 29.2029 31.8261 29.5708C29.9377 30.6927 27.8144 31.5608 25.467 32.1825C23.2278 32.7817 20.9204 33.0912 18.6017 33.1032C15.1617 33.1032 11.9002 32.5051 8.82449 31.3089C5.79014 30.1268 2.99498 28.4096 0.573334 26.2397C0.420366 26.1291 0.345703 26.0168 0.345703 25.9062C0.345703 25.8355 0.37484 25.7721 0.420366 25.7087L0.413082 25.7268ZM10.3906 16.3224C10.3906 14.8 10.7676 13.5041 11.5178 12.4221C12.2717 11.3492 13.297 10.5355 14.6191 9.98269C15.8319 9.47342 17.2869 9.11275 19.0442 8.89164C19.6379 8.82458 20.6121 8.73578 21.9579 8.62885V8.06701C21.9579 6.66605 21.8049 5.71274 21.5063 5.23246C21.0474 4.58182 20.3226 4.25196 19.3155 4.25196H19.0424C18.314 4.32265 17.6839 4.54557 17.1503 4.9461C16.6148 5.35524 16.2492 5.94614 16.1232 6.60624C16.034 7.05933 15.81 7.30763 15.4658 7.37831L11.6325 6.89984C11.2519 6.80741 11.0662 6.62799 11.0662 6.30901C11.0662 6.24195 11.0771 6.17489 11.099 6.08609C11.4796 4.13235 12.401 2.67701 13.867 1.72914C15.3493 0.797578 17.0574 0.253865 19.0169 0.143311H19.8382C22.3494 0.143311 24.3343 0.797578 25.7457 2.09343C25.9551 2.31635 26.159 2.54652 26.3648 2.81475C26.5469 3.06667 26.7072 3.29322 26.7909 3.49802C26.9057 3.69919 27.0222 3.99642 27.0896 4.35889C27.1825 4.74493 27.2498 4.99685 27.2954 5.13096C27.3372 5.28683 27.3882 5.58406 27.4119 6.06253C27.4228 6.53737 27.441 6.8056 27.441 6.89803V14.8834C27.441 15.4524 27.5303 15.9744 27.6905 16.4511C27.8508 16.9223 28.0074 17.2684 28.1676 17.4714L28.9471 18.4882C29.0637 18.6493 29.1336 18.8393 29.1492 19.0373C29.1492 19.2222 29.06 19.378 28.8797 19.5085C27.055 21.098 26.0516 21.9589 25.895 22.0966C25.6455 22.3014 25.325 22.3232 24.9389 22.1673C24.6586 21.9322 24.3917 21.6817 24.1395 21.417L23.6697 20.8896C23.5768 20.7754 23.4129 20.5742 23.1853 20.2516L22.73 19.5937C21.499 20.9349 20.2934 21.7776 19.0843 22.1184C18.3304 22.3449 17.4198 22.4591 16.2999 22.4591C14.6136 22.4591 13.2023 21.9426 12.106 20.895C11.017 19.8511 10.4671 18.3776 10.4671 16.4492L10.3888 16.3351L10.3906 16.3224ZM16.0923 15.6572C16.0923 16.5181 16.3054 17.2014 16.7388 17.7215C17.1685 18.2381 17.764 18.4972 18.4961 18.4972C18.5598 18.4972 18.6563 18.4827 18.7874 18.4646C18.9295 18.4429 18.9896 18.4284 19.0442 18.4284C19.9766 18.1873 20.6868 17.5929 21.2094 16.6486C21.4618 16.2217 21.6455 15.7582 21.7539 15.2748C21.8923 14.7891 21.936 14.3795 21.9561 14.0678C21.9852 13.7669 21.9852 13.2468 21.9852 12.5454V11.728C20.705 11.728 19.7271 11.8168 19.0642 11.9962C17.1285 12.5454 16.1433 13.7669 16.1433 15.6735L16.0905 15.6445V15.6572H16.0923ZM30.016 26.2868C30.0615 26.1944 30.1307 26.1201 30.2145 26.0276C30.7626 25.6634 31.2998 25.4078 31.8116 25.2737C32.6126 25.0687 33.4328 24.9467 34.259 24.9094C34.4721 24.8913 34.6852 24.9094 34.8891 24.9547C35.8707 25.0471 36.4789 25.2103 36.6683 25.4495C36.7648 25.5909 36.803 25.7957 36.803 26.044V26.2705C36.803 27.0426 36.59 27.9488 36.1693 28.9927C35.7487 30.0366 35.1623 30.8794 34.4157 31.5336C34.3046 31.6224 34.2062 31.6678 34.117 31.6678C34.0715 31.6678 34.0241 31.6678 33.9822 31.6496C33.8438 31.5826 33.8184 31.4684 33.8821 31.2853C34.7034 29.3805 35.1058 28.0466 35.1058 27.2963C35.1058 27.0661 35.0603 26.8849 34.9711 26.7725C34.7544 26.5242 34.1389 26.3792 33.1136 26.3792C32.6716 26.3858 32.2299 26.4094 31.7897 26.4499C31.2379 26.5242 30.7299 26.5913 30.271 26.6584C30.1362 26.6584 30.047 26.633 29.9978 26.5913C29.9523 26.546 29.9413 26.5206 29.965 26.4753C29.965 26.4499 29.9759 26.43 29.9978 26.3792V26.2904L30.016 26.2868Z" fill="#252B42"/>
</svg>
