<svg width="32" height="38" viewBox="0 0 32 38" fill="none" xmlns="http://www.w3.org/2000/svg">
<path d="M26.415 19.9564C26.3969 16.9853 27.7885 14.7461 30.5985 13.0949C29.0269 10.9167 26.6491 9.71866 23.5148 9.48776C20.5472 9.26123 17.3003 11.1607 16.1114 11.1607C14.855 11.1607 11.9819 9.56618 9.72121 9.56618C5.05579 9.63589 0.0976562 13.1646 0.0976562 20.3442C0.0976562 22.4658 0.49845 24.6571 1.30004 26.9138C2.37182 29.8849 6.23566 37.1646 10.2661 37.047C12.3737 36.9991 13.8642 35.6006 16.6068 35.6006C19.2682 35.6006 20.6462 37.047 22.9969 37.047C27.0634 36.9903 30.558 30.3728 31.5757 27.393C26.1222 24.9054 26.415 20.1089 26.415 19.9564ZM21.682 6.66911C23.9652 4.0465 23.758 1.65913 23.6905 0.800903C21.673 0.914172 19.3403 2.12964 18.0118 3.62392C16.5482 5.22711 15.6881 7.20931 15.8727 9.4442C18.0523 9.60539 20.0428 8.52062 21.682 6.66911Z" fill="#252B42"/>
</svg>
