<svg width="34" height="37" viewBox="0 0 34 37" fill="none" xmlns="http://www.w3.org/2000/svg">
<path d="M18.7608 18.001L24.7339 12.0463L5.44099 1.23653C4.16234 0.547826 2.96449 0.451167 1.9141 1.20431L18.7608 18.001ZM25.7519 24.9726L31.9614 21.4908C33.1733 20.8142 33.8379 19.8557 33.8379 18.7924C33.8379 17.7311 33.1733 16.7706 31.9634 16.094L26.3418 12.9465L20.0132 19.2535L25.7519 24.9726ZM0.875826 2.6683C0.746547 3.06501 0.673828 3.50804 0.673828 3.99335V33.6055C0.673828 34.3728 0.843507 35.0333 1.15054 35.5589L17.5064 19.2515L0.875826 2.6683ZM18.7608 20.5001L2.49585 36.7168C2.80693 36.8356 3.14225 36.898 3.49574 36.898C4.12598 36.898 4.78247 36.7128 5.45109 36.3422L24.146 25.8768L18.7608 20.5001Z" fill="#252B42"/>
</svg>
