<svg width="25" height="25" viewBox="0 0 25 25" fill="none" xmlns="http://www.w3.org/2000/svg">
<path d="M5.7279 15.4264L3.91506 23.2763C3.85893 23.514 3.87578 23.7631 3.96342 23.9911C4.05106 24.2191 4.20541 24.4153 4.40632 24.5542C4.60722 24.6931 4.84534 24.7682 5.08958 24.7696C5.33381 24.7711 5.5728 24.6988 5.77535 24.5623L12.4001 20.1458L19.0248 24.5623C19.2321 24.6999 19.4765 24.7708 19.7252 24.7653C19.9739 24.7599 20.215 24.6784 20.416 24.5318C20.617 24.3853 20.7683 24.1807 20.8496 23.9456C20.9308 23.7105 20.9381 23.4561 20.8705 23.2167L18.6452 15.43L24.164 10.4636C24.3408 10.3045 24.467 10.097 24.5271 9.86685C24.5872 9.63671 24.5785 9.39402 24.5022 9.16876C24.4258 8.94351 24.285 8.74558 24.0974 8.59946C23.9097 8.45334 23.6833 8.36543 23.4462 8.34661L16.51 7.79424L13.5085 1.15003C13.4128 0.936083 13.2572 0.75441 13.0605 0.626933C12.8638 0.499457 12.6345 0.431625 12.4001 0.431625C12.1657 0.431625 11.9364 0.499457 11.7397 0.626933C11.543 0.75441 11.3874 0.936083 11.2917 1.15003L8.2902 7.79424L1.35398 8.34539C1.12093 8.36386 0.898142 8.44907 0.712256 8.59083C0.52637 8.7326 0.385262 8.92492 0.305814 9.14478C0.226366 9.36464 0.211941 9.60274 0.264267 9.83058C0.316592 10.0584 0.433451 10.2664 0.600864 10.4295L5.7279 15.4264ZM9.19905 10.1631C9.41622 10.146 9.62478 10.0708 9.80288 9.94533C9.98098 9.81989 10.1221 9.64884 10.2113 9.45013L12.4001 4.60658L14.5889 9.45013C14.6781 9.64884 14.8192 9.81989 14.9973 9.94533C15.1754 10.0708 15.384 10.146 15.6011 10.1631L20.4337 10.5463L16.454 14.1282C16.1085 14.4397 15.971 14.919 16.0975 15.3668L17.622 20.7019L13.0766 17.6711C12.8771 17.5372 12.6422 17.4657 12.4019 17.4657C12.1616 17.4657 11.9268 17.5372 11.7273 17.6711L6.97741 20.8381L8.25491 15.3072C8.30175 15.1037 8.29547 14.8917 8.23666 14.6914C8.17785 14.4911 8.0685 14.3093 7.91911 14.1635L4.22288 10.5597L9.19905 10.1631Z" fill="#F3CD03"/>
</svg>
