<svg width="29" height="27" viewBox="0 0 29 27" fill="none" xmlns="http://www.w3.org/2000/svg">
<path d="M11.2459 15.0438C11.2459 14.5725 10.9386 14.2583 10.4775 14.2583H1.25669C0.795643 14.2583 0.488281 14.5725 0.488281 15.0438V22.8993C0.488281 23.3706 0.795643 23.6848 1.25669 23.842L10.4775 24.9417C10.9386 24.9417 11.2459 24.6275 11.2459 24.3133V15.0438ZM13.5512 14.2583C13.0901 14.2583 12.7828 14.5725 12.7828 15.0438V24.3133C12.7828 24.7846 13.0901 25.0988 13.5512 25.2559L27.3824 26.827C27.8435 26.827 28.1508 26.5128 28.1508 26.1986V15.2009C28.1508 14.7296 27.8435 14.4154 27.3824 14.4154L13.5512 14.2583ZM11.2459 2.78924C11.2459 2.31791 10.9386 2.00369 10.4775 2.1608L1.25669 3.26057C0.795643 3.26057 0.488281 3.57479 0.488281 4.04612V11.9016C0.488281 12.3729 0.795643 12.6872 1.25669 12.6872H10.4775C10.9386 12.6872 11.2459 12.3729 11.2459 11.9016V2.78924ZM13.5512 1.84658C13.0901 1.84658 12.7828 2.31791 12.7828 2.78924V12.0587C12.7828 12.5301 13.0901 12.8443 13.5512 12.8443H27.3824C27.8435 12.8443 28.1508 12.5301 28.1508 12.0587V1.06103C28.1508 0.589702 27.8435 0.275483 27.3824 0.432593L13.5512 1.84658Z" fill="#252B42"/>
</svg>
